<svg width="20" height="20" viewBox="0 0 20 20" fill="none" xmlns="http://www.w3.org/2000/svg">
  <path fill-rule="evenodd" clip-rule="evenodd" d="M0 2C0 0.895431 0.895431 0 2 0H18C19.1046 0 20 0.895431 20 2V18C20 19.1046 19.1046 20 18 20H2C0.895431 20 0 19.1046 0 18V2ZM2 1H18C18.5523 1 19 1.44772 19 2V18C19 18.5523 18.5523 19 18 19H2C1.44772 19 1 18.5523 1 18V2C1 1.44772 1.44772 1 2 1Z" fill="black"/>
  <circle cx="6" cy="6.5" r="1.6" fill="black"/>
  <circle cx="9.2" cy="5.2" r="1.6" fill="black"/>
  <circle cx="7.6" cy="9" r="1.6" fill="black"/>
  <circle cx="13.6" cy="12.4" r="1.6" fill="black"/>
  <circle cx="10.4" cy="13.6" r="1.6" fill="black"/>
  <circle cx="14.2" cy="9.4" r="1.6" fill="black"/>
  <circle cx="15" cy="5" r="1.1" fill="black" fill-opacity="0.45"/>
  <circle cx="5" cy="14.6" r="1.1" fill="black" fill-opacity="0.45"/>
</svg>
